<svg width="4317" height="3634" viewBox="0 0 4317 3634" fill="none" xmlns="http://www.w3.org/2000/svg">
<path d="M752.456 3259.63H415.957V3262.17H752.456V3259.63Z" fill="#E4E4E4"/>
<path d="M1279.14 3332.88H972.613V3335.42H1279.14V3332.88Z" fill="#E4E4E4"/>
<path d="M584.233 3353.91H195.613V3356.45H584.233V3353.91Z" fill="#E4E4E4"/>
<path d="M4188.99 3348.43H4027.44V3350.97H4188.99V3348.43Z" fill="#E4E4E4"/>
<path d="M3994.82 3348.43H3595.32V3350.97H3994.82V3348.43Z" fill="#E4E4E4"/>
<path d="M2466.15 3258.31H2158V3260.85H2466.15V3258.31Z" fill="#E4E4E4"/>
<path d="M3242.8 3258.31H2510.27V3260.85H3242.8V3258.31Z" fill="#E4E4E4"/>
<path d="M2019.71 2873.25H57.912C42.5435 2873.22 27.8136 2867.1 16.9559 2856.22C6.09817 2845.34 -2.35684e-05 2830.6 0 2815.23V57.5056C0.133786 42.2252 6.29101 27.6147 17.1343 16.8475C27.9775 6.08033 42.6311 0.0261761 57.912 0H2019.71C2035.09 0 2049.85 6.11213 2060.73 16.9918C2071.61 27.8715 2077.72 42.6274 2077.72 58.0136V2815.23C2077.72 2830.62 2071.61 2845.38 2060.73 2856.26C2049.85 2867.14 2035.09 2873.25 2019.71 2873.25ZM57.912 2.03201C43.2171 2.05892 29.1333 7.9153 18.7519 18.3157C8.37056 28.7161 2.53998 42.8107 2.54 57.5056V2815.23C2.53998 2829.93 8.37056 2844.02 18.7519 2854.42C29.1333 2864.82 43.2171 2870.68 57.912 2870.71H2019.71C2034.41 2870.68 2048.51 2864.83 2058.9 2854.43C2069.3 2844.03 2075.15 2829.94 2075.18 2815.23V57.5056C2075.15 42.8013 2069.3 28.707 2058.9 18.3095C2048.51 7.912 2034.41 2.05886 2019.71 2.03201H57.912Z" fill="#E4E4E4"/>
<path d="M4257.82 2873H2256.94C2241.26 2872.97 2226.23 2866.85 2215.14 2855.98C2204.05 2845.11 2197.8 2830.37 2197.78 2814.99V57.5006C2197.94 42.2123 2204.24 27.6031 2215.32 16.8397C2226.39 6.07626 2241.35 0.0258884 2256.94 0H4257.82C4273.38 0.0528731 4288.3 6.11832 4299.34 16.8817C4310.38 27.6451 4316.64 42.2391 4316.78 57.5006V2814.99C4316.78 2830.34 4310.57 2845.07 4299.52 2855.94C4288.47 2866.81 4273.47 2872.95 4257.82 2873ZM2256.94 2.03183C2241.95 2.05869 2227.57 7.91132 2216.97 18.3079C2206.36 28.7045 2200.4 42.7976 2200.37 57.5006V2814.99C2200.4 2829.69 2206.36 2843.79 2216.97 2854.18C2227.57 2864.58 2241.95 2870.43 2256.94 2870.46H4257.82C4272.81 2870.43 4287.19 2864.58 4297.79 2854.18C4308.4 2843.79 4314.37 2829.69 4314.39 2814.99V57.5006C4314.37 42.7976 4308.4 28.7045 4297.79 18.3079C4287.19 7.91132 4272.81 2.05869 4257.82 2.03183H2256.94Z" fill="#E4E4E4"/>
<path d="M1656 77.6123H486.687C447.325 77.7196 409.605 93.4036 381.772 121.237C353.939 149.07 338.255 186.789 338.147 226.152V418.277C332.792 419.987 328.112 423.343 324.773 427.867C321.435 432.39 319.609 437.852 319.555 443.474V766.867C319.594 772.493 321.414 777.961 324.754 782.488C328.095 787.015 332.783 790.367 338.147 792.063V902.096C333.149 902.522 328.485 904.78 325.053 908.438C321.62 912.096 319.662 916.893 319.555 921.908V1094.63C319.662 1099.64 321.62 1104.44 325.053 1108.1C328.485 1111.76 333.149 1114.02 338.147 1114.44V3025.84C338.255 3065.2 353.939 3102.92 381.772 3130.76C409.605 3158.59 447.325 3174.27 486.687 3174.38H1656C1695.35 3174.25 1733.04 3158.55 1760.85 3130.72C1788.66 3102.89 1804.33 3065.19 1804.44 3025.84V226.152C1804.33 186.807 1788.66 149.103 1760.85 121.273C1733.04 93.4423 1695.35 77.7463 1656 77.6123Z" fill="#E0E0E0"/>
<path d="M537.592 3174.39H1706.8C1788.84 3174.39 1855.34 3107.89 1855.34 3025.85L1855.34 226.262C1855.34 144.226 1788.84 77.7222 1706.8 77.7222H537.592C455.556 77.7222 389.052 144.226 389.052 226.262L389.052 3025.85C389.052 3107.89 455.556 3174.39 537.592 3174.39Z" fill="#EBEBEB"/>
<path d="M1056.04 3032.55C1056.02 3045.64 1059.88 3058.44 1067.13 3069.33C1074.39 3080.22 1084.71 3088.71 1096.8 3093.73C1108.88 3098.76 1122.18 3100.08 1135.02 3097.54C1147.86 3095 1159.65 3088.71 1168.91 3079.46C1178.17 3070.22 1184.48 3058.43 1187.04 3045.6C1189.6 3032.76 1188.3 3019.46 1183.29 3007.37C1178.29 2995.28 1169.81 2984.94 1158.93 2977.67C1148.05 2970.4 1135.26 2966.51 1122.18 2966.51C1104.65 2966.51 1087.84 2973.47 1075.44 2985.85C1063.04 2998.23 1056.06 3015.03 1056.04 3032.55Z" fill="#E0E0E0"/>
<path d="M389.052 2909.51H1855.34L1855.34 248.305H389.052L389.052 2909.51Z" fill="#FAFAFA"/>
<path d="M1487.44 1889.04H764.145C727.476 1889.17 692.346 1903.79 666.408 1929.71C640.469 1955.63 625.825 1990.75 625.664 2027.42V2401.1C625.825 2437.77 640.469 2472.89 666.408 2498.81C692.346 2524.73 727.476 2539.35 764.145 2539.48H1295.11L1291.14 2670.24L1425.26 2539.48H1487.44C1524.09 2539.35 1559.21 2524.73 1585.14 2498.8C1611.06 2472.88 1625.68 2437.76 1625.81 2401.1V2027.42C1625.68 1990.76 1611.06 1955.64 1585.14 1929.72C1559.21 1903.8 1524.09 1889.17 1487.44 1889.04ZM747.381 2048.25C747.408 2037.99 751.495 2028.16 758.748 2020.9C766.002 2013.65 775.832 2009.56 786.09 2009.54H952.613C962.825 2009.54 972.62 2013.59 979.841 2020.82C987.062 2028.04 991.119 2037.83 991.119 2048.04C991.119 2058.26 987.062 2068.05 979.841 2075.27C972.62 2082.49 962.825 2086.55 952.613 2086.55H786.395C776.199 2086.55 766.414 2082.53 759.166 2075.36C751.918 2068.18 747.793 2058.44 747.686 2048.25H747.381ZM1446.8 2409.84H1158.56C1148.75 2409.34 1139.52 2405.08 1132.76 2397.97C1125.99 2390.85 1122.22 2381.41 1122.22 2371.59C1122.22 2361.77 1125.99 2352.33 1132.76 2345.21C1139.52 2338.09 1148.75 2333.84 1158.56 2333.34H1446.8C1456.6 2333.84 1465.84 2338.09 1472.6 2345.21C1479.36 2352.33 1483.13 2361.77 1483.13 2371.59C1483.13 2381.41 1479.36 2390.85 1472.6 2397.97C1465.84 2405.08 1456.6 2409.34 1446.8 2409.84ZM1446.8 2248.19H825.105C815.301 2247.69 806.065 2243.44 799.304 2236.32C792.543 2229.2 788.774 2219.76 788.774 2209.94C788.774 2200.13 792.543 2190.68 799.304 2183.56C806.065 2176.45 815.301 2172.2 825.105 2171.69H1446.8C1456.6 2172.2 1465.84 2176.45 1472.6 2183.56C1479.36 2190.68 1483.13 2200.13 1483.13 2209.94C1483.13 2219.76 1479.36 2229.2 1472.6 2236.32C1465.84 2243.44 1456.6 2247.69 1446.8 2248.19ZM1446.8 2086.55H1078.7C1068.49 2086.55 1058.69 2082.49 1051.47 2075.27C1044.25 2068.05 1040.19 2058.26 1040.19 2048.04C1040.19 2037.83 1044.25 2028.04 1051.47 2020.82C1058.69 2013.59 1068.49 2009.54 1078.7 2009.54H1446.8C1457.01 2009.54 1466.8 2013.59 1474.02 2020.82C1481.24 2028.04 1485.3 2037.83 1485.3 2048.04C1485.3 2058.26 1481.24 2068.05 1474.02 2075.27C1466.8 2082.49 1457.01 2086.55 1446.8 2086.55Z" fill="#E4E4E4"/>
<path d="M1120.35 589.68C1018.73 589.713 920.665 627.089 844.804 694.701C768.943 762.314 720.576 855.448 708.898 956.393C697.221 1057.34 723.048 1159.05 781.469 1242.2C839.889 1325.35 926.829 1384.13 1025.76 1407.36L1120.35 1527.75L1214.94 1407.36C1313.86 1384.13 1400.8 1325.35 1459.22 1242.2C1517.64 1159.05 1543.47 1057.34 1531.79 956.393C1520.12 855.448 1471.75 762.314 1395.89 694.701C1320.03 627.089 1221.96 589.713 1120.35 589.68ZM1120.35 1176.62C1086.19 1176.62 1052.79 1166.49 1024.39 1147.51C995.984 1128.54 973.846 1101.56 960.774 1070C947.701 1038.44 944.28 1003.71 950.945 970.207C957.609 936.703 974.059 905.927 998.215 881.772C1022.37 857.617 1053.15 841.167 1086.65 834.502C1120.15 827.838 1154.88 831.258 1186.44 844.331C1218 857.404 1244.98 879.542 1263.96 907.945C1282.94 936.349 1293.07 969.743 1293.07 1003.9C1293.07 1049.71 1274.87 1093.64 1242.48 1126.03C1210.09 1158.43 1166.15 1176.62 1120.35 1176.62Z" fill="#E4E4E4"/>
<path d="M1290.45 156.154C1290.43 151.536 1289.05 147.028 1286.47 143.199C1283.89 139.369 1280.23 136.39 1275.96 134.637C1271.69 132.884 1266.99 132.436 1262.47 133.349C1257.94 134.262 1253.79 136.495 1250.53 139.767C1247.27 143.04 1245.05 147.203 1244.16 151.734C1243.27 156.264 1243.74 160.957 1245.51 165.221C1247.28 169.485 1250.27 173.129 1254.11 175.692C1257.96 178.255 1262.47 179.623 1267.09 179.623C1270.16 179.623 1273.21 179.016 1276.05 177.835C1278.89 176.654 1281.48 174.924 1283.65 172.743C1285.82 170.562 1287.54 167.974 1288.71 165.127C1289.87 162.28 1290.47 159.231 1290.45 156.154Z" fill="#E0E0E0"/>
<path d="M1186.29 132.48H992.134C985.944 132.507 980.016 134.977 975.639 139.354C971.263 143.73 968.792 149.659 968.766 155.848C968.766 162.055 971.224 168.009 975.604 172.408C979.983 176.806 985.927 179.291 992.134 179.318H1186.29C1192.5 179.291 1198.44 176.806 1202.82 172.408C1207.2 168.009 1209.66 162.055 1209.66 155.848C1209.63 149.659 1207.16 143.73 1202.79 139.354C1198.41 134.977 1192.48 132.507 1186.29 132.48Z" fill="#E0E0E0"/>
<path d="M2519.61 3174.28H3996.17C4063.5 3174.28 4118.09 3119.69 4118.09 3052.36V181.448C4118.09 114.114 4063.5 59.5281 3996.17 59.5281H2519.61C2452.28 59.5281 2397.69 114.114 2397.69 181.448L2397.69 3052.36C2397.69 3119.69 2452.28 3174.28 2519.61 3174.28Z" fill="#E0E0E0"/>
<path d="M2488.42 3174.28H3964.97C4032.31 3174.28 4086.89 3119.69 4086.89 3052.36L4086.89 181.448C4086.89 114.114 4032.31 59.5281 3964.97 59.5281H2488.42C2421.08 59.5281 2366.5 114.114 2366.5 181.448L2366.5 3052.36C2366.5 3119.69 2421.08 3174.28 2488.42 3174.28Z" fill="#EBEBEB"/>
<path d="M4005.61 3052.47V248.308C4005.61 225.863 3987.42 207.668 3964.97 207.668L2488.42 207.668C2465.98 207.668 2447.78 225.863 2447.78 248.308V3052.47C2447.78 3074.91 2465.98 3093.11 2488.42 3093.11H3964.97C3987.42 3093.11 4005.61 3074.91 4005.61 3052.47Z" fill="#FAFAFA"/>
<path d="M3496.68 1750.56C3461.55 1750.52 3426.89 1758.59 3395.39 1774.15C3363.9 1789.71 3336.43 1812.34 3315.12 1840.27L3101.15 1711.85C3114.74 1682.06 3121.78 1649.7 3121.78 1616.96C3121.78 1584.21 3114.74 1551.85 3101.15 1522.06L3315.12 1393.64C3348 1436.66 3395.09 1466.59 3448 1478.11C3500.9 1489.62 3556.18 1481.97 3603.97 1456.51C3651.75 1431.06 3688.94 1389.45 3708.9 1339.12C3728.85 1288.79 3730.28 1233 3712.92 1181.71C3695.56 1130.43 3660.55 1086.98 3614.12 1059.11C3567.7 1031.25 3512.89 1020.78 3459.46 1029.58C3406.04 1038.37 3357.48 1065.87 3322.44 1107.15C3287.41 1148.43 3268.18 1200.81 3268.18 1254.96C3268 1287.69 3274.93 1320.06 3288.5 1349.85L3074.43 1478.27C3045.43 1440.29 3005.24 1412.36 2959.54 1398.41C2913.83 1384.46 2864.9 1385.19 2819.63 1400.5C2774.36 1415.81 2735.03 1444.93 2707.17 1483.75C2679.32 1522.58 2664.33 1569.17 2664.33 1616.96C2664.33 1664.74 2679.32 1711.33 2707.17 1750.16C2735.03 1788.99 2774.36 1818.1 2819.63 1833.41C2864.9 1848.72 2913.83 1849.45 2959.54 1835.5C3005.24 1821.55 3045.43 1793.62 3074.43 1755.64L3288.5 1884.06C3268 1928.95 3262.58 1979.27 3273.07 2027.49C3283.56 2075.71 3309.38 2119.24 3346.67 2151.56C3383.96 2183.88 3430.72 2203.25 3479.94 2206.77C3529.16 2210.3 3578.2 2197.78 3619.72 2171.11C3661.23 2144.43 3692.99 2105.03 3710.24 2058.79C3727.49 2012.56 3729.3 1961.98 3715.4 1914.63C3701.5 1867.28 3672.64 1825.71 3633.14 1796.13C3593.64 1766.55 3545.62 1750.57 3496.27 1750.56H3496.68Z" fill="#E4E4E4"/>
<path d="M3226.62 177.281C3248.06 177.281 3265.44 159.905 3265.44 138.47C3265.44 117.035 3248.06 99.6587 3226.62 99.6587C3205.19 99.6587 3187.81 117.035 3187.81 138.47C3187.81 159.905 3205.19 177.281 3226.62 177.281Z" fill="white"/>
<path d="M2157.99 3633.21C3245.95 3633.21 4127.92 3581.72 4127.92 3518.2C4127.92 3454.68 3245.95 3403.19 2157.99 3403.19C1070.03 3403.19 188.07 3454.68 188.07 3518.2C188.07 3581.72 1070.03 3633.21 2157.99 3633.21Z" fill="#E4E4E4"/>
<path d="M2906.32 2486.35C2891.18 2486.26 2876.26 2482.79 2862.63 2476.19L1107.59 1639.72C1090.42 1631.4 1075.93 1618.41 1065.79 1602.24C1055.66 1586.07 1050.28 1567.37 1050.28 1548.28C1050.28 1529.19 1055.66 1510.49 1065.79 1494.32C1075.93 1478.15 1090.42 1465.16 1107.59 1456.84L2862.63 620.163C2886.64 610.193 2913.55 609.801 2937.83 619.068C2962.12 628.335 2981.92 646.557 2993.18 669.984C3004.44 693.411 3006.29 720.262 2998.35 745.012C2990.42 769.763 2973.3 790.53 2950.52 803.043L1387.4 1548.08L2950.52 2293.01C2971.18 2303.01 2987.84 2319.72 2997.79 2340.41C3007.74 2361.09 3010.39 2384.54 3005.32 2406.92C3000.24 2429.31 2987.73 2449.32 2969.83 2463.69C2951.92 2478.05 2929.68 2485.94 2906.73 2486.05L2906.32 2486.35Z" fill="#375EB2"/>
<path d="M3442.54 1230.68L3435.22 1223.57C3465.16 1192.88 3492.36 1159.63 3516.5 1124.2L3524.94 1129.89C3500.44 1165.81 3472.87 1199.53 3442.54 1230.68Z" fill="#375EB2"/>
<path d="M2906.38 1422.6C3299.17 1422.6 3617.58 1104.19 3617.58 711.401C3617.58 318.616 3299.17 0.201172 2906.38 0.201172C2513.6 0.201172 2195.18 318.616 2195.18 711.401C2195.18 1104.19 2513.6 1422.6 2906.38 1422.6Z" fill="#375EB2"/>
<path d="M2906.42 1268.37C3214.03 1268.37 3463.39 1019 3463.39 711.398C3463.39 403.791 3214.03 154.427 2906.42 154.427C2598.81 154.427 2349.45 403.791 2349.45 711.398C2349.45 1019 2598.81 1268.37 2906.42 1268.37Z" fill="white"/>
<mask id="mask0_186_1078" style="mask-type:luminance" maskUnits="userSpaceOnUse" x="2349" y="154" width="1115" height="1115">
<path d="M2906.42 1268.37C3214.03 1268.37 3463.39 1019 3463.39 711.397C3463.39 403.791 3214.03 154.426 2906.42 154.426C2598.81 154.426 2349.45 403.791 2349.45 711.397C2349.45 1019 2598.81 1268.37 2906.42 1268.37Z" fill="white"/>
</mask>
<g mask="url(#mask0_186_1078)">
<path d="M2921.38 1023.82C2921.38 1023.82 3121.22 1065.47 3229.94 1048.61C3338.65 1031.74 3326.05 886.048 3240.1 813.201C3154.14 740.354 3174.06 757.321 3194.38 681.121C3214.7 604.921 3168.98 543.961 3082.62 540.608C2996.26 537.255 3079.77 428.848 2991.18 307.741C2902.58 186.634 2744.7 278.074 2733.32 332.328C2683.74 333.954 2631.72 414.726 2668.8 487.776C2705.88 560.826 2658.64 579.927 2629.58 667.811C2600.52 755.695 2716.65 772.561 2690.54 831.794C2664.43 891.026 2662.3 1087.52 2921.38 1023.82Z" fill="#263238"/>
<path d="M2727.01 873.246C2725.18 903.726 2721.63 932.275 2717.56 961.536C2713.5 990.797 2708.01 1019.35 2701.71 1048.1C2695.41 1076.85 2688.5 1105.5 2679.46 1133.75C2670.92 1162.38 2660.74 1190.5 2648.98 1217.97L2639.64 1238.29C2638.31 1241.44 2635.88 1246.02 2633.84 1249.88C2631.81 1253.74 2629.48 1257.4 2627.24 1261.15C2618.59 1274.72 2608.95 1287.63 2598.39 1299.76C2578.7 1322.36 2557.52 1343.61 2534.99 1363.36C2491.36 1401.8 2444.93 1436.95 2396.1 1468.52L2368.06 1432.96C2387.87 1413.76 2408.09 1393.84 2427.7 1374.03C2447.31 1354.22 2466.61 1334.1 2484.9 1313.07C2502.9 1293.25 2519.86 1272.49 2535.7 1250.89C2543.15 1240.95 2549.94 1230.53 2556.02 1219.7C2557.24 1217.16 2558.66 1214.62 2559.68 1212.28C2560.69 1209.95 2561.61 1208.12 2562.93 1204.66L2569.94 1186.07C2588 1135.05 2602.06 1082.71 2612 1029.51C2617.38 1002.68 2621.14 975.455 2625.21 948.226C2629.27 920.997 2632.22 893.159 2634.66 866.946L2727.01 873.246Z" fill="#FFB573"/>
<path d="M2664.02 762.399C2626.53 771.95 2600.31 926.28 2600.31 926.28L2703.64 996.079C2703.64 996.079 2802.7 840.428 2773.85 799.178C2743.87 756.608 2718.78 748.378 2664.02 762.399Z" fill="#142A5B"/>
<path opacity="0.2" d="M2664.02 762.399C2626.53 771.95 2600.31 926.28 2600.31 926.28L2703.64 996.079C2703.64 996.079 2802.7 840.428 2773.85 799.178C2743.87 756.608 2718.78 748.378 2664.02 762.399Z" fill="#375EB2"/>
<path opacity="0.2" d="M2667.46 796.838L2638.61 952.388L2696.72 991.707L2667.46 796.838Z" fill="black"/>
<path d="M2664.01 762.401C2664.01 762.401 2620.73 777.641 2707.49 1311.55H3077.12C3070.92 1161.08 3070.71 1068.42 3142.55 759.759C3090.82 749.199 3038.39 742.408 2985.68 739.439C2929.8 735.472 2873.71 735.472 2817.83 739.439C2745.8 745.637 2664.01 762.401 2664.01 762.401Z" fill="#142A5B"/>
<path opacity="0.2" d="M2664.01 762.401C2664.01 762.401 2620.73 777.641 2707.49 1311.55H3077.12C3070.92 1161.08 3070.71 1068.42 3142.55 759.759C3090.82 749.199 3038.39 742.408 2985.68 739.439C2929.8 735.472 2873.71 735.472 2817.83 739.439C2745.8 745.637 2664.01 762.401 2664.01 762.401Z" fill="#142A5B"/>
<path d="M2969.01 550.062C2958.85 604.113 2947.88 703.071 2985.67 739.038C2985.67 739.038 2970.84 793.8 2870.56 793.8C2760.22 793.8 2817.83 739.038 2817.83 739.038C2878.08 724.712 2876.45 680.008 2865.99 638.047L2969.01 550.062Z" fill="#FFB573"/>
<path d="M2985.58 739.138C2929.74 735.07 2873.68 735.07 2817.84 739.138L2806.86 740.154C2784.31 766.469 2812.05 799.793 2835.52 823.466C2835.52 823.466 2969.42 803.146 3007.73 740.561C3000.41 739.951 2993 739.443 2985.58 739.138Z" fill="#FFB573"/>
<path opacity="0.2" d="M2927.06 586.019L2866.1 638.038C2868.65 647.799 2870.38 657.757 2871.28 667.807C2899.02 667.807 2923.2 648.401 2932.95 616.397C2936.4 604.916 2928.99 591.607 2927.06 586.019Z" fill="black"/>
<path d="M2972.05 406.799C2991.15 495.089 3001.21 531.97 2969.92 588.866C2922.87 674.413 2810.3 678.579 2765.19 597.807C2724.55 525.163 2700.17 392.981 2775.35 334.561C2791.87 321.594 2811.42 313.066 2832.16 309.787C2852.9 306.507 2874.14 308.585 2893.85 315.824C2913.56 323.063 2931.09 335.221 2944.78 351.144C2958.46 367.067 2967.85 386.225 2972.05 406.799Z" fill="#FFB573"/>
<path d="M2840.2 468.469C2842.23 475.581 2840.2 482.388 2835.53 483.709C2830.85 485.029 2825.37 480.254 2823.54 473.549C2821.71 466.843 2823.54 459.731 2828.31 458.41C2833.09 457.089 2838.78 461.458 2840.2 468.469Z" fill="#263238"/>
<path d="M2760.35 491.023C2762.38 498.034 2760.35 504.841 2755.67 506.162C2751 507.482 2745.51 502.809 2743.69 496.002C2741.86 489.194 2743.69 482.184 2748.46 480.863C2753.24 479.542 2758.42 483.911 2760.35 491.023Z" fill="#263238"/>
<path d="M2750.58 480.36H2732.19C2732.19 480.36 2744.69 491.13 2750.58 480.36Z" fill="#263238"/>
<path d="M2788.58 496.821C2786.81 514.683 2782.61 532.219 2776.09 548.942C2780.41 550.512 2785.02 551.116 2789.6 550.712C2794.19 550.309 2798.62 548.907 2802.6 546.605L2788.58 496.821Z" fill="#ED893E"/>
<path d="M2848.92 563.464C2845.63 564.942 2842.23 566.165 2838.76 567.122C2838.2 567.284 2837.61 567.219 2837.11 566.943C2836.6 566.667 2836.23 566.201 2836.06 565.649C2835.9 565.096 2835.97 564.502 2836.24 563.997C2836.52 563.492 2836.98 563.118 2837.54 562.956C2846.39 560.675 2854.58 556.34 2861.45 550.303C2868.32 544.267 2873.66 536.697 2877.06 528.209C2877.14 527.944 2877.27 527.699 2877.45 527.488C2877.63 527.276 2877.85 527.103 2878.1 526.98C2878.34 526.856 2878.61 526.784 2878.89 526.768C2879.17 526.753 2879.44 526.793 2879.7 526.888C2879.97 526.957 2880.23 527.082 2880.45 527.256C2880.68 527.429 2880.86 527.647 2880.99 527.895C2881.13 528.144 2881.21 528.418 2881.23 528.699C2881.25 528.98 2881.22 529.263 2881.12 529.53C2878.25 537.028 2873.93 543.886 2868.41 549.71C2862.88 555.533 2856.26 560.208 2848.92 563.464Z" fill="#263238"/>
<path d="M2752.02 345.841C2732.71 367.889 2942.82 480.969 2985.7 460.649C3028.57 440.329 2989.96 327.147 2935.81 302.661C2881.66 278.176 2810.44 278.989 2752.02 345.841Z" fill="#263238"/>
<path d="M3018 479.45C3016.52 496.84 3008.23 512.942 2994.94 524.255C2977.16 539.089 2958.77 525.373 2955.82 503.935C2953.18 484.326 2959.17 453.135 2980.82 446.633C2985.56 445.337 2990.55 445.241 2995.34 446.354C3000.14 447.467 3004.57 449.753 3008.26 453.008C3011.95 456.263 3014.77 460.383 3016.47 464.999C3018.17 469.615 3018.7 474.58 3018 479.45Z" fill="#FFB573"/>
<path d="M2867.74 443.176C2866.92 443.559 2866 443.677 2865.11 443.513C2864.22 443.349 2863.4 442.912 2862.76 442.261C2849.25 427.529 2823.75 430.679 2823.55 430.679C2822.98 430.781 2822.4 430.77 2821.84 430.647C2821.27 430.523 2820.74 430.289 2820.27 429.959C2819.79 429.628 2819.39 429.207 2819.08 428.721C2818.77 428.234 2818.57 427.691 2818.47 427.123C2818.4 426.562 2818.44 425.993 2818.59 425.448C2818.74 424.903 2819 424.393 2819.35 423.949C2819.7 423.505 2820.13 423.134 2820.63 422.86C2821.12 422.585 2821.66 422.411 2822.23 422.348C2823.45 422.348 2852.71 418.69 2868.86 436.572C2869.66 437.388 2870.1 438.481 2870.1 439.62C2870.1 440.759 2869.66 441.852 2868.86 442.668C2868.52 442.903 2868.14 443.075 2867.74 443.176Z" fill="#263238"/>
<path d="M2725.98 460.849C2725.32 461.196 2724.59 461.378 2723.85 461.378C2723.1 461.378 2722.37 461.196 2721.71 460.849C2721.25 460.525 2720.85 460.112 2720.55 459.634C2720.25 459.156 2720.05 458.622 2719.95 458.065C2719.86 457.507 2719.87 456.936 2720 456.385C2720.13 455.834 2720.37 455.314 2720.7 454.855C2724.43 449.123 2729.49 444.382 2735.45 441.037C2741.42 437.693 2748.1 435.845 2754.94 435.652C2755.51 435.652 2756.07 435.766 2756.59 435.987C2757.12 436.207 2757.59 436.531 2757.99 436.938C2758.39 437.345 2758.7 437.827 2758.91 438.357C2759.12 438.886 2759.22 439.452 2759.2 440.021C2759.19 440.59 2759.06 441.151 2758.83 441.671C2758.6 442.191 2758.26 442.658 2757.85 443.046C2757.43 443.435 2756.94 443.736 2756.41 443.931C2755.87 444.127 2755.3 444.214 2754.73 444.187C2749.32 444.462 2744.05 446.014 2739.35 448.715C2734.66 451.417 2730.67 455.192 2727.71 459.732C2727.24 460.25 2726.64 460.635 2725.98 460.849Z" fill="#263238"/>
<path d="M3182.47 856.995C3203.85 909.004 3222.14 962.234 3237.23 1016.41C3253.45 1071.44 3264.47 1127.87 3270.15 1184.96C3270.76 1192.38 3270.96 1199.9 3271.37 1207.41V1213C3271.37 1214.93 3271.37 1216.46 3271.37 1219.4V1227.23L3270.65 1234.13C3268.68 1249.99 3265.28 1265.63 3260.49 1280.87C3251.89 1308.22 3241.71 1335.06 3230.01 1361.24C3207.29 1412.09 3181.58 1461.56 3153 1509.37L3111.35 1489.66C3129.13 1438.86 3147.01 1386.84 3162.96 1335.94C3170.78 1310.54 3178.2 1285.14 3183.28 1260.45C3185.83 1249.39 3187.5 1238.14 3188.26 1226.82V1223.47V1221.03C3188.26 1221.03 3188.26 1218.69 3188.26 1217.17L3187.75 1212.6C3187.04 1206.4 3186.53 1200.4 3185.61 1194.1C3177.29 1142.68 3165.17 1091.94 3149.34 1042.31C3133.7 991.514 3115.71 940.714 3097.12 891.844L3182.47 856.995Z" fill="#FFB573"/>
<path d="M3142.56 759.759C3179.65 770.935 3223.84 898.443 3223.84 898.443L3080.48 1001.16C3080.48 1001.16 3028.06 894.786 3043.6 846.932C3059.86 797.046 3100.3 746.856 3142.56 759.759Z" fill="#142A5B"/>
<path opacity="0.2" d="M3142.56 759.759C3179.65 770.935 3223.84 898.443 3223.84 898.443L3080.48 1001.16C3080.48 1001.16 3028.06 894.786 3043.6 846.932C3059.86 797.046 3100.3 746.856 3142.56 759.759Z" fill="#142A5B"/>
<path d="M2830.43 457.6H2812.04C2812.04 457.6 2824.54 468.572 2830.43 457.6Z" fill="#263238"/>
</g>
<path d="M651.186 1007.77L644.277 1000.25C694.599 953.62 751.072 914.103 812.121 882.802L816.794 891.844C756.544 922.721 700.821 961.728 651.186 1007.77Z" fill="#375EB2"/>
<path d="M573.065 1091.99L565.141 1085.69C577.637 1069.84 590.947 1054.3 604.765 1039.57L612.181 1046.48C598.77 1061.01 585.664 1076.35 573.065 1091.99Z" fill="#375EB2"/>
<path d="M1151.36 2259.27C1544.15 2259.27 1862.56 1940.86 1862.56 1548.07C1862.56 1155.29 1544.15 836.873 1151.36 836.873C758.579 836.873 440.164 1155.29 440.164 1548.07C440.164 1940.86 758.579 2259.27 1151.36 2259.27Z" fill="#375EB2"/>
<path d="M1151.36 2105.05C1458.97 2105.05 1708.33 1855.69 1708.33 1548.08C1708.33 1240.47 1458.97 991.109 1151.36 991.109C843.755 991.109 594.391 1240.47 594.391 1548.08C594.391 1855.69 843.755 2105.05 1151.36 2105.05Z" fill="white"/>
<mask id="mask1_186_1078" style="mask-type:luminance" maskUnits="userSpaceOnUse" x="594" y="991" width="1115" height="1115">
<path d="M1151.36 2105.05C1458.97 2105.05 1708.33 1855.69 1708.33 1548.08C1708.33 1240.47 1458.97 991.108 1151.36 991.108C843.755 991.108 594.391 1240.47 594.391 1548.08C594.391 1855.69 843.755 2105.05 1151.36 2105.05Z" fill="white"/>
</mask>
<g mask="url(#mask1_186_1078)">
<path d="M1402.49 1699.06C1428.7 1760.02 1455.83 1820.98 1483.16 1881.94C1496.71 1912.36 1510.63 1942.5 1524.92 1972.37C1539.21 2002.24 1553.77 2031.63 1568.61 2060.56C1576.23 2074.68 1583.64 2089.31 1591.67 2102.72L1597.66 2112.88L1600.61 2117.96C1600.29 2117.57 1599.92 2117.22 1599.49 2116.95C1598.17 2116.13 1599.49 2117.66 1602.13 2119.49C1612.11 2124.88 1622.93 2128.52 1634.14 2130.25C1648.61 2132.98 1663.23 2134.85 1677.93 2135.84C1708.41 2137.98 1741.23 2137.98 1773.84 2136.96L1823.11 2134.93L1872.19 2131.68L1884.89 2190.81C1817.8 2213.23 1748.17 2227.15 1677.62 2232.26C1658.6 2233.51 1639.52 2233.34 1620.52 2231.75C1598.05 2230.2 1575.99 2224.98 1555.2 2216.31C1540.81 2210.05 1527.88 2200.88 1517.2 2189.39C1513.98 2185.92 1511.03 2182.22 1508.36 2178.31L1504.6 2172.72L1497.18 2161.45C1487.02 2146.41 1478.18 2130.97 1468.94 2116.34C1433.58 2055.99 1402.19 1995.03 1372.62 1933.46C1343.05 1871.89 1315.62 1809.81 1289.71 1746L1402.49 1699.06Z" fill="#7F3E3B"/>
<path d="M1258.14 1690.73C1233.45 1762.76 1378.33 1975.21 1378.33 1975.21L1517.22 1898.3C1493.6 1832.22 1465.74 1767.74 1433.8 1705.26C1384.83 1613 1285.16 1611.68 1258.14 1690.73Z" fill="#5796E8"/>
<path opacity="0.2" d="M1256 1699.88C1287.09 1684.94 1322.86 1697.44 1360.55 1756.87C1398.24 1816.31 1430.35 1915.88 1433.8 1944.33L1378.33 1974.81C1378.33 1974.81 1244.52 1779.02 1256 1699.88Z" fill="black"/>
<path d="M1351.81 1635.56C1351.81 1635.56 1455.34 1878.79 1380.76 2331.72H949.979C944.696 2265.68 975.074 1943 900.5 1631.49C947.905 1622.29 995.861 1616.18 1044.06 1613.21C1104.97 1609.71 1166.03 1609.71 1226.94 1613.21C1269.07 1617.48 1310.81 1624.95 1351.81 1635.56Z" fill="#5796E8"/>
<path d="M1228.96 1946.76L1136.4 1847.7L1203.97 1748.34L1296.42 1847.4L1228.96 1946.76Z" fill="white"/>
<path opacity="0.2" d="M996.728 1708.41C1005.67 1759.21 993.782 1882.35 949.789 2024.18C946.4 1902.6 932.256 1781.57 907.523 1662.48V1661.87C935.768 1658.93 988.194 1660.35 996.728 1708.41Z" fill="black"/>
<path d="M1055.02 1407.06C1068.64 1465.99 1083.88 1573.89 1044.05 1613.21C1044.05 1613.21 1069.25 1672.65 1178.67 1672.85C1266.45 1672.85 1227.13 1613.21 1227.13 1613.21C1160.89 1597.56 1160.89 1548.79 1170.75 1503.07L1055.02 1407.06Z" fill="#7F3E3B"/>
<path opacity="0.2" d="M1102.17 1446.18L1170.75 1502.97C1168.25 1513.65 1166.72 1524.53 1166.18 1535.48C1140.99 1531.82 1105.22 1504.29 1101.97 1477.98C1100.08 1467.45 1100.15 1456.67 1102.17 1446.18Z" fill="black"/>
<path d="M1226.85 1231.8C1263.42 1255.47 1268.7 1369.37 1215.16 1385.62C1161.62 1401.88 1157.45 1187 1226.85 1231.8Z" fill="#263238"/>
<path d="M1029.24 1345.29C1053.83 1421.59 1064.3 1467.21 1113.78 1498.5C1129.79 1508.79 1148.32 1514.5 1167.35 1515.01C1186.38 1515.52 1205.18 1510.81 1221.72 1501.38C1238.27 1491.96 1251.91 1478.19 1261.18 1461.56C1270.45 1444.94 1274.99 1426.09 1274.3 1407.06C1273.29 1333.91 1233.66 1221.44 1149.13 1207.32C1130.94 1203.76 1112.14 1205.07 1094.62 1211.09C1077.09 1217.12 1061.46 1227.66 1049.31 1241.65C1037.15 1255.64 1028.9 1272.58 1025.38 1290.78C1021.85 1308.97 1023.19 1327.78 1029.24 1345.29Z" fill="#7F3E3B"/>
<path d="M1056.96 1266.65C1097.6 1321.72 1097.6 1409.5 1065.9 1419.05C1034.2 1428.6 946.11 1327.61 941.538 1273.36C937.881 1229.77 966.837 1229.77 966.837 1229.77C966.837 1229.77 920.101 1202.64 973.136 1170.03C1032.98 1133.35 1181.11 1136.91 1114.46 1085.3C1162.72 1069.24 1181.42 1100.03 1178.37 1118.72C1213.93 1107.85 1211.59 1069.24 1211.59 1069.24C1211.59 1069.24 1306.08 1122.08 1263.51 1183.64C1220.94 1245.21 1142.6 1265.03 1056.96 1266.65Z" fill="#263238"/>
<path d="M1015.8 1438.26C1030.46 1452.42 1049.97 1460.45 1070.36 1460.71C1097.28 1460.71 1102.67 1435.31 1088.44 1414.08C1075.74 1394.87 1046.38 1371.91 1022.71 1382.17C999.035 1392.44 998.019 1420.68 1015.8 1438.26Z" fill="#7F3E3B"/>
<path d="M1152.96 1341.53C1154.59 1347.83 1159.26 1352.19 1163.12 1351.69C1166.98 1351.18 1169.32 1344.98 1167.69 1338.68C1166.07 1332.38 1161.39 1328.52 1157.53 1328.52C1153.67 1328.52 1151.44 1334.72 1152.96 1341.53Z" fill="#263238"/>
<path d="M1224.68 1325.37C1226.31 1331.67 1230.98 1336.04 1234.84 1335.53C1238.7 1335.03 1241.04 1328.73 1239.42 1322.53C1237.79 1316.33 1233.22 1311.86 1229.26 1312.37C1225.29 1312.88 1223.26 1319.07 1224.68 1325.37Z" fill="#263238"/>
<path d="M1202.96 1333.5C1215.49 1351.14 1230.32 1367.02 1247.05 1380.75C1243.41 1384.78 1238.93 1387.96 1233.93 1390.09C1228.93 1392.21 1223.53 1393.22 1218.1 1393.04L1202.96 1333.5Z" fill="#630F0F"/>
<path d="M1190.45 1415.91C1177.25 1416.07 1164.44 1411.45 1154.38 1402.9C1154.2 1402.74 1154.06 1402.54 1153.96 1402.31C1153.85 1402.09 1153.8 1401.85 1153.79 1401.6C1153.78 1401.36 1153.82 1401.11 1153.9 1400.88C1153.99 1400.65 1154.12 1400.44 1154.28 1400.26C1154.45 1400.08 1154.65 1399.94 1154.87 1399.83C1155.1 1399.73 1155.34 1399.67 1155.58 1399.66C1155.83 1399.65 1156.07 1399.69 1156.3 1399.78C1156.53 1399.86 1156.74 1399.99 1156.92 1400.16C1163.34 1405.25 1170.82 1408.81 1178.81 1410.57C1186.81 1412.33 1195.1 1412.24 1203.05 1410.32C1203.29 1410.26 1203.54 1410.25 1203.79 1410.29C1204.03 1410.33 1204.26 1410.42 1204.47 1410.55C1204.68 1410.68 1204.86 1410.86 1205 1411.06C1205.14 1411.27 1205.24 1411.5 1205.29 1411.74C1205.38 1412.24 1205.29 1412.75 1205.03 1413.19C1204.76 1413.62 1204.35 1413.94 1203.86 1414.08C1199.47 1415.16 1194.97 1415.77 1190.45 1415.91Z" fill="#263238"/>
<path d="M1124.63 1322.93C1124.13 1323.03 1123.61 1323.03 1123.11 1322.93C1122.64 1322.74 1122.22 1322.47 1121.87 1322.11C1121.51 1321.76 1121.23 1321.34 1121.04 1320.87C1120.85 1320.41 1120.76 1319.91 1120.77 1319.41C1120.77 1318.91 1120.88 1318.41 1121.08 1317.96C1123.34 1312.38 1126.95 1307.46 1131.57 1303.61C1136.2 1299.76 1141.7 1297.12 1147.59 1295.91C1148.6 1295.76 1149.63 1296.02 1150.45 1296.63C1151.27 1297.24 1151.81 1298.15 1151.96 1299.16C1152.03 1299.65 1152.01 1300.16 1151.88 1300.64C1151.76 1301.12 1151.53 1301.58 1151.23 1301.98C1150.93 1302.37 1150.55 1302.71 1150.12 1302.95C1149.69 1303.2 1149.21 1303.36 1148.71 1303.43C1144.18 1304.53 1139.98 1306.68 1136.45 1309.72C1132.92 1312.76 1130.16 1316.59 1128.39 1320.9C1128.06 1321.59 1127.51 1322.16 1126.84 1322.52C1126.16 1322.89 1125.39 1323.03 1124.63 1322.93Z" fill="#263238"/>
<path d="M1248.99 1294.18C1248.42 1294.18 1247.86 1294.06 1247.35 1293.81C1246.84 1293.56 1246.39 1293.2 1246.04 1292.76C1243 1288.94 1239.14 1285.86 1234.74 1283.75C1230.34 1281.64 1225.52 1280.55 1220.64 1280.57C1220.14 1280.62 1219.63 1280.58 1219.15 1280.43C1218.66 1280.29 1218.21 1280.05 1217.83 1279.73C1217.44 1279.4 1217.12 1279.01 1216.88 1278.56C1216.65 1278.11 1216.51 1277.62 1216.48 1277.11C1216.42 1276.61 1216.47 1276.1 1216.61 1275.62C1216.76 1275.14 1217 1274.69 1217.32 1274.3C1217.64 1273.91 1218.04 1273.59 1218.49 1273.36C1218.94 1273.13 1219.43 1272.99 1219.93 1272.95C1226.05 1272.82 1232.12 1274.1 1237.67 1276.69C1243.22 1279.28 1248.1 1283.11 1251.93 1287.88C1252.39 1288.45 1252.68 1289.13 1252.77 1289.85C1252.86 1290.57 1252.75 1291.3 1252.44 1291.96C1252.13 1292.62 1251.64 1293.17 1251.03 1293.57C1250.42 1293.96 1249.71 1294.17 1248.99 1294.18Z" fill="#263238"/>
<path d="M985.544 1747.93L969.287 1783.59C963.699 1795.88 958.315 1808.28 953.031 1820.77C942.363 1845.77 932.711 1870.96 922.551 1896.16C912.391 1921.36 904.365 1946.96 897.152 1972.06C893.291 1984.76 890.141 1997.35 886.992 2009.95L882.826 2028.85L882.216 2031.19V2032.41C882.216 2032.41 882.216 2032.41 882.216 2033.52C883.138 2040.92 885.484 2048.06 889.125 2054.56C894.421 2064.79 900.537 2074.57 907.413 2083.82C923.014 2104.76 939.984 2124.65 958.213 2143.35C995.5 2182.17 1036.65 2220.57 1077.9 2256.84L1043.05 2306.73C991.211 2278.92 941.974 2246.52 895.932 2209.9C871.862 2190.85 849.307 2169.96 828.47 2147.42C817.256 2134.87 807.064 2121.45 797.99 2107.29C786.307 2089.9 778.223 2070.34 774.216 2049.78C772.999 2043.08 772.387 2036.27 772.387 2029.46C772.392 2025.79 772.595 2022.13 772.996 2018.49V2014.32V2011.48L776.044 1988.52C778.686 1973.48 781.023 1958.04 784.579 1943.61C791.352 1914.08 799.209 1885.15 808.15 1856.84C817.192 1828.5 827.454 1800.76 838.63 1773.43C844.319 1759.81 850.212 1746.2 856.308 1732.79C862.404 1719.38 868.703 1706.37 876.628 1692.15L985.544 1747.93Z" fill="#7F3E3B"/>
<path d="M900.498 1631.49C824.603 1642.57 746.473 1921.66 746.473 1921.66L929.353 1991.36C929.353 1991.36 975.479 1871.37 1006.98 1778C1040.4 1680.47 981.778 1619.61 900.498 1631.49Z" fill="#5796E8"/>
</g>
<path d="M2906.38 3095.86C3299.17 3095.86 3617.58 2777.44 3617.58 2384.66C3617.58 1991.87 3299.17 1673.46 2906.38 1673.46C2513.6 1673.46 2195.18 1991.87 2195.18 2384.66C2195.18 2777.44 2513.6 3095.86 2906.38 3095.86Z" fill="#375EB2"/>
<path d="M2906.42 2941.62C3214.03 2941.62 3463.39 2692.26 3463.39 2384.65C3463.39 2077.05 3214.03 1827.68 2906.42 1827.68C2598.81 1827.68 2349.45 2077.05 2349.45 2384.65C2349.45 2692.26 2598.81 2941.62 2906.42 2941.62Z" fill="white"/>
<mask id="mask2_186_1078" style="mask-type:luminance" maskUnits="userSpaceOnUse" x="2349" y="1827" width="1115" height="1115">
<path d="M2906.42 2941.62C3214.03 2941.62 3463.39 2692.26 3463.39 2384.65C3463.39 2077.05 3214.03 1827.68 2906.42 1827.68C2598.81 1827.68 2349.45 2077.05 2349.45 2384.65C2349.45 2692.26 2598.81 2941.62 2906.42 2941.62Z" fill="white"/>
</mask>
<g mask="url(#mask2_186_1078)">
<path d="M2710.04 2569.46C2708.31 2599.94 2704.86 2627.07 2700.89 2655.72C2696.93 2684.37 2691.65 2712.1 2685.65 2740.15C2673.9 2796.97 2656.9 2852.58 2634.85 2906.26L2625.71 2926.58L2623.47 2931.66L2622.36 2934.2L2620.73 2937.45C2617.56 2943.85 2613.6 2949.82 2608.95 2955.23C2603.35 2961.59 2596.64 2966.86 2589.13 2970.78C2581.84 2974.68 2573.88 2977.19 2565.66 2978.19C2553.14 2979.59 2540.45 2978.27 2528.48 2974.33C2511.71 2968.62 2495.89 2960.44 2481.54 2950.05C2469.08 2941.19 2457.17 2931.59 2445.88 2921.3C2403.85 2882.04 2366.05 2838.49 2333.1 2791.35L2368.15 2761.79C2387.66 2780.07 2408.08 2798.67 2428.5 2816.24C2448.4 2833.86 2469.19 2850.44 2490.78 2865.93C2500.84 2873.32 2511.32 2880.1 2522.18 2886.25C2530.8 2891.5 2540.15 2895.47 2549.92 2898.03C2553.27 2898.64 2555.4 2898.03 2553.88 2898.03C2550.97 2898.3 2548.25 2899.56 2546.16 2901.59C2545.45 2902.2 2545.34 2902.3 2545.45 2901.59L2548.6 2893.26L2555.5 2875.17C2572.77 2825.13 2586.36 2773.89 2596.14 2721.86C2601.43 2695.75 2605.08 2669.13 2609.05 2642.61C2613.01 2616.09 2615.85 2588.86 2618.19 2563.67L2710.04 2569.46Z" fill="#FF8B7B"/>
<path d="M2647.16 2459.12C2609.88 2468.57 2583.77 2621.68 2583.77 2621.68L2686.38 2691.99C2686.38 2691.99 2784.83 2537.25 2756.18 2496.2C2726.41 2453.53 2701.52 2445.4 2647.16 2459.12Z" fill="#263238"/>
<path opacity="0.2" d="M2650.52 2493.47L2621.87 2648.1L2679.58 2687.22L2650.52 2493.47Z" fill="black"/>
<path d="M2369.16 2755.89L2320.6 2678.78L2292.86 2766.46C2292.86 2766.46 2332.99 2808.42 2369.16 2798.47V2755.89Z" fill="#FF8B7B"/>
<path d="M2647.15 2459.13C2647.15 2459.13 2604.07 2474.26 2690.33 3004.92H3057.61C3051.52 2855.47 3051.31 2763.32 3122.74 2456.28C3071.32 2445.72 3019.19 2438.92 2966.78 2435.96C2911.24 2431.99 2855.49 2431.99 2799.95 2435.96C2728.33 2442.56 2647.15 2459.13 2647.15 2459.13Z" fill="#263238"/>
<path d="M2728.55 2067.76C2860.02 1857.35 3249.45 2029.86 3046.15 2237.03C2774.37 2513.89 2728.55 2067.76 2728.55 2067.76Z" fill="#263238"/>
<path d="M2815.52 2365.55C2801.91 2365.88 2788.49 2362.36 2776.81 2355.39C2695.53 2304.59 2736.17 2090.62 2737.79 2081.07C2738.01 2080.1 2738.6 2079.25 2739.43 2078.7C2740.27 2078.15 2741.28 2077.94 2742.26 2078.13C2742.75 2078.22 2743.22 2078.42 2743.63 2078.69C2744.04 2078.97 2744.4 2079.33 2744.67 2079.74C2744.95 2080.16 2745.13 2080.63 2745.23 2081.12C2745.32 2081.61 2745.31 2082.11 2745.21 2082.6C2745.21 2084.73 2703.55 2300.83 2780.77 2348.48C2818.16 2371.55 2878 2351.63 2958.77 2289.35C2959.17 2289.03 2959.62 2288.8 2960.11 2288.66C2960.6 2288.53 2961.11 2288.49 2961.62 2288.56C2962.12 2288.62 2962.6 2288.79 2963.04 2289.05C2963.48 2289.31 2963.86 2289.65 2964.16 2290.06C2964.74 2290.87 2964.99 2291.86 2964.86 2292.85C2964.73 2293.83 2964.22 2294.73 2963.45 2295.35C2903.1 2342.18 2853.51 2365.55 2815.52 2365.55Z" fill="#263238"/>
<path d="M2975.12 2008.33C3015.76 1885.49 3233.49 1924.71 3156.89 2055.47C3075.81 2193.85 2975.12 2008.33 2975.12 2008.33Z" fill="#263238"/>
<path d="M2950.52 2248.3C2940.36 2301.94 2929.49 2400.7 2967.08 2436.06C2967.08 2436.06 2952.35 2490.51 2852.68 2490.51C2743.06 2490.51 2800.26 2436.06 2800.26 2436.06C2860.1 2421.73 2858.57 2377.33 2848.21 2335.68L2950.52 2248.3Z" fill="#FF8B7B"/>
<path d="M2844.75 2490.42C2860.56 2506.21 2872.88 2525.14 2880.92 2545.99C2900.12 2539.19 2999.18 2485.03 3001.11 2434.23C2987.93 2430.71 2974.57 2427.89 2961.08 2425.8C2927.96 2456.24 2888.09 2478.38 2844.75 2490.42Z" fill="#5796E8"/>
<path d="M2844.75 2490.42C2830.08 2507.08 2817.93 2525.8 2808.69 2545.99C2790.46 2535.46 2776.76 2518.58 2770.2 2498.58C2763.63 2478.58 2764.68 2456.86 2773.13 2437.58C2787.92 2432.84 2803.31 2430.21 2818.85 2429.76C2818.85 2429.76 2769.67 2468.37 2844.75 2490.42Z" fill="#5796E8"/>
<path opacity="0.2" d="M2908.45 2283.97L2847.49 2335.68C2850.09 2345.36 2851.83 2355.26 2852.67 2365.25C2875.53 2361.9 2906.93 2336.8 2909.37 2312.92C2910.83 2303.3 2910.52 2293.48 2908.45 2283.97Z" fill="black"/>
<path d="M3006.82 2149.86C2985.79 2237.13 2978.78 2274.42 2926.15 2311.81C2847.11 2368.09 2744.59 2323.19 2739.11 2231.34C2734.23 2148.74 2769.59 2019.91 2861.94 2000.1C2882.34 1995.63 2903.54 1996.44 2923.53 2002.47C2943.53 2008.51 2961.64 2019.55 2976.16 2034.56C2990.68 2049.57 3001.12 2068.04 3006.49 2088.22C3011.85 2108.4 3011.97 2129.62 3006.82 2149.86Z" fill="#FF8B7B"/>
<path d="M2859.11 2137.97C2857.79 2145.08 2853.01 2150.26 2848.34 2149.45C2843.66 2148.64 2840.82 2142.13 2842.14 2134.92C2843.46 2127.71 2848.24 2122.52 2852.91 2123.44C2857.58 2124.35 2859.82 2130.75 2859.11 2137.97Z" fill="#263238"/>
<path d="M2777.82 2123.85C2776.5 2131.06 2771.73 2136.14 2766.95 2135.33C2762.18 2134.52 2759.53 2128.01 2760.75 2120.8C2761.97 2113.59 2766.95 2108.51 2771.62 2109.32C2776.3 2110.13 2778.63 2116.33 2777.82 2123.85Z" fill="#263238"/>
<path d="M2773.22 2109.82L2756.77 2101.79C2756.77 2101.79 2763.27 2116.83 2773.22 2109.82Z" fill="#263238"/>
<path d="M2806.77 2152.59C2797.47 2167.83 2786.12 2181.71 2773.04 2193.84C2776.23 2197.12 2780.11 2199.66 2784.39 2201.27C2788.68 2202.89 2793.26 2203.54 2797.83 2203.19L2806.77 2152.59Z" fill="#FF5652"/>
<path d="M2830.22 2237.02C2845.83 2237.23 2860.91 2231.36 2872.28 2220.67C2872.67 2220.25 2872.88 2219.71 2872.88 2219.14C2872.88 2218.58 2872.67 2218.03 2872.28 2217.62C2872.08 2217.41 2871.85 2217.25 2871.59 2217.14C2871.32 2217.03 2871.04 2216.98 2870.76 2216.98C2870.48 2216.98 2870.19 2217.03 2869.93 2217.14C2869.67 2217.25 2869.43 2217.41 2869.24 2217.62C2862.54 2223.74 2854.5 2228.19 2845.76 2230.63C2837.03 2233.06 2827.84 2233.41 2818.94 2231.64C2818.38 2231.55 2817.8 2231.67 2817.33 2232C2816.86 2232.32 2816.53 2232.81 2816.4 2233.37C2816.31 2233.93 2816.44 2234.51 2816.76 2234.98C2817.08 2235.45 2817.57 2235.78 2818.13 2235.91C2822.12 2236.6 2826.17 2236.97 2830.22 2237.02Z" fill="#263238"/>
<path d="M3042.47 2175.77C2997.36 2250.75 2876.76 2093.98 2856.74 2018.18C2827.08 2032.92 2766.32 2076.1 2765.3 2048.05C2764.29 2020.01 2867.82 1971.45 2923.19 1979.98C2978.56 1988.52 3073.46 2123.85 3042.47 2175.77Z" fill="#263238"/>
<path d="M3020.64 2219.55C3013.97 2235.56 3001.22 2248.28 2985.19 2254.91C2963.85 2263.44 2950.64 2244.75 2954.71 2223.51C2958.06 2204.21 2973.4 2176.47 2995.35 2177.08C3000.26 2177.24 3005.06 2178.64 3009.3 2181.14C3013.54 2183.64 3017.08 2187.17 3019.6 2191.4C3022.12 2195.63 3023.54 2200.42 3023.72 2205.34C3023.9 2210.26 3022.84 2215.15 3020.64 2219.55Z" fill="#FF8B7B"/>
<path d="M2886.52 2106.67C2887.16 2106.82 2887.82 2106.82 2888.45 2106.67C2889.47 2106.15 2890.24 2105.25 2890.6 2104.17C2890.96 2103.09 2890.88 2101.9 2890.38 2100.88C2887.43 2094.75 2883.05 2089.41 2877.6 2085.33C2872.15 2081.24 2865.81 2078.53 2859.09 2077.41C2858.54 2077.34 2857.97 2077.38 2857.43 2077.53C2856.89 2077.69 2856.39 2077.94 2855.96 2078.3C2855.52 2078.65 2855.16 2079.08 2854.89 2079.58C2854.63 2080.07 2854.47 2080.61 2854.42 2081.17C2854.3 2082.3 2854.63 2083.43 2855.33 2084.32C2856.03 2085.21 2857.05 2085.79 2858.18 2085.94C2863.47 2086.89 2868.47 2089.1 2872.75 2092.37C2877.02 2095.63 2880.46 2099.88 2882.76 2104.74C2883.15 2105.38 2883.71 2105.89 2884.37 2106.23C2885.04 2106.57 2885.78 2106.72 2886.52 2106.67Z" fill="#263238"/>
<path d="M2757.99 2092.56C2759.17 2092.51 2760.29 2092.04 2761.14 2091.24C2764.75 2087.26 2769.24 2084.18 2774.25 2082.26C2779.26 2080.33 2784.66 2079.62 2790 2080.16C2790.55 2080.26 2791.12 2080.26 2791.67 2080.14C2792.22 2080.02 2792.74 2079.79 2793.21 2079.47C2793.67 2079.15 2794.06 2078.74 2794.37 2078.27C2794.67 2077.79 2794.88 2077.26 2794.98 2076.71C2795.09 2076.16 2795.1 2075.59 2794.99 2075.04C2794.89 2074.49 2794.67 2073.97 2794.36 2073.5C2794.05 2073.04 2793.64 2072.64 2793.17 2072.34C2792.7 2072.03 2792.18 2071.83 2791.62 2071.73C2784.88 2070.9 2778.03 2071.7 2771.65 2074.05C2765.27 2076.4 2759.55 2080.24 2754.95 2085.24C2754.15 2086.06 2753.71 2087.15 2753.71 2088.29C2753.71 2089.43 2754.15 2090.52 2754.95 2091.34C2755.35 2091.73 2755.82 2092.04 2756.35 2092.25C2756.87 2092.46 2757.43 2092.56 2757.99 2092.56Z" fill="#263238"/>
<path d="M2854.42 2123.85L2837.96 2115.82C2837.96 2115.82 2844.47 2131.16 2854.42 2123.85Z" fill="#263238"/>
<path d="M3162.47 2553.31C3182.64 2602.46 3200.07 2652.7 3214.69 2703.78C3230.11 2755.47 3241.23 2808.34 3247.91 2861.87L3250.05 2882.19L3251.06 2903.42V2908.71V2912.16V2917.85C3250.45 2925.04 3248.88 2932.11 3246.39 2938.88C3242.15 2949.55 3235.94 2959.34 3228.1 2967.74C3216.37 2979.8 3202.91 2990.07 3188.17 2998.22C3175.54 3005.27 3162.44 3011.44 3148.96 3016.71C3098.54 3036.05 3045.97 3049.22 2992.39 3055.92L2982.23 3011.32C3028.93 2994.32 3074.45 2974.23 3118.48 2951.17C3128.45 2945.68 3138.12 2939.64 3147.43 2933.09C3155.11 2928.08 3161.96 2921.91 3167.75 2914.8C3169.58 2912.26 3169.89 2910.53 3169.58 2910.94C3169.06 2911.53 3168.77 2912.29 3168.77 2913.07C3168.71 2913.34 3168.71 2913.62 3168.77 2913.89V2912.46V2908.1L3166.84 2890.72L3163.99 2873.04C3162.27 2861.36 3159.52 2849.27 3157.19 2837.38C3154.85 2825.5 3151.9 2813.51 3148.55 2801.52C3142.56 2777.54 3135.44 2753.56 3128.23 2729.58C3112.99 2682.14 3096.23 2633.67 3078.55 2587.34L3162.47 2553.31Z" fill="#FF8B7B"/>
<path d="M3123.26 2456.58C3160.04 2467.76 3204.54 2594.56 3204.54 2594.56L3061.79 2696.16C3061.79 2696.16 3009.77 2590.39 3025.22 2542.84C3040.46 2493.67 3080.79 2443.88 3123.26 2456.58Z" fill="#263238"/>
</g>
</svg>
